<?xml version="1.0" encoding="utf-8"?>
<!-- Generator: Adobe Illustrator 18.1.1, SVG Export Plug-In . SVG Version: 6.00 Build 0)  -->
<svg version="1.1" id="Layer_1" xmlns="http://www.w3.org/2000/svg" xmlns:xlink="http://www.w3.org/1999/xlink" x="0px" y="0px"
	 viewBox="0 0 556.4 178.7" enable-background="new 0 0 556.4 178.7" xml:space="preserve">
<g>
	<g>
		<g>
			<path fill="current" d="M142.7,110.9l7.9-0.7c0.4,2.9,1.3,5.3,2.6,7.2c1.4,1.9,3.5,3.4,6.4,4.5c2.9,1.2,6.2,1.7,9.8,1.7
				c3.2,0,6.1-0.4,8.5-1.3c2.5-0.9,4.3-2.1,5.5-3.6c1.2-1.5,1.8-3.2,1.8-5c0-1.8-0.6-3.4-1.7-4.8c-1.1-1.4-3.1-2.5-5.7-3.4
				c-1.7-0.6-5.5-1.6-11.4-2.8c-5.9-1.3-10-2.5-12.3-3.6c-3-1.5-5.3-3.3-6.8-5.4c-1.5-2.2-2.2-4.6-2.2-7.3c0-2.9,0.9-5.7,2.7-8.3
				c1.8-2.6,4.5-4.5,8-5.8c3.5-1.3,7.4-2,11.7-2c4.7,0,8.9,0.7,12.5,2.1c3.6,1.4,6.4,3.4,8.3,6.1c1.9,2.7,3,5.8,3.1,9.2l-8.1,0.6
				c-0.4-3.6-1.9-6.4-4.4-8.3c-2.5-1.9-6.2-2.8-11.1-2.8c-5.1,0-8.8,0.9-11.2,2.6c-2.3,1.7-3.5,3.8-3.5,6.2c0,2.1,0.8,3.8,2.5,5.2
				c1.6,1.4,5.9,2.7,12.7,4.2c6.9,1.4,11.6,2.7,14.1,3.7c3.7,1.6,6.4,3.5,8.2,5.9c1.8,2.4,2.6,5.2,2.6,8.3c0,3.1-1,6-2.9,8.8
				c-1.9,2.7-4.7,4.9-8.4,6.4c-3.6,1.5-7.7,2.3-12.3,2.3c-5.8,0-10.6-0.8-14.5-2.3c-3.9-1.5-7-3.9-9.2-6.9
				C144,118.2,142.8,114.7,142.7,110.9z"/>
			<path fill="current" d="M235.6,129.6c-0.8-1.5-1.3-3.3-1.5-5.3c-2.9,2.3-5.7,3.9-8.4,4.8c-2.7,0.9-5.6,1.4-8.7,1.4
				c-5.1,0-9-1.1-11.7-3.4c-2.7-2.3-4.1-5.2-4.1-8.7c0-2.1,0.5-4,1.6-5.7c1-1.7,2.4-3.1,4.1-4.1c1.7-1,3.6-1.8,5.7-2.3
				c1.5-0.4,3.9-0.7,7-1.1c6.3-0.7,11-1.5,14-2.5c0-1,0-1.6,0-1.9c0-2.9-0.7-5-2.2-6.1c-2-1.6-5-2.4-9-2.4c-3.7,0-6.4,0.6-8.2,1.8
				c-1.8,1.2-3.1,3.3-3.9,6.3l-7.6-1c0.7-3,1.8-5.4,3.4-7.3c1.6-1.8,3.9-3.3,6.9-4.3c3-1,6.5-1.5,10.5-1.5c3.9,0,7.2,0.4,9.6,1.3
				c2.5,0.8,4.3,1.9,5.4,3.2c1.2,1.3,2,2.9,2.4,4.9c0.3,1.2,0.4,3.4,0.4,6.6v9.5c0,6.6,0.2,10.8,0.5,12.6c0.3,1.8,1,3.5,1.9,5.1
				H235.6L235.6,129.6z M233.5,108.4c-2.9,1.1-7.1,2-12.8,2.7c-3.2,0.4-5.5,0.9-6.9,1.4c-1.3,0.5-2.4,1.3-3.1,2.3
				c-0.7,1-1.1,2.2-1.1,3.4c0,1.9,0.8,3.5,2.4,4.8c1.6,1.3,3.9,1.9,7,1.9c3,0,5.7-0.6,8.1-1.8c2.4-1.2,4.1-2.9,5.2-4.9
				c0.8-1.6,1.3-4,1.3-7.2L233.5,108.4z"/>
			<path fill="current" d="M253.4,129.6V87.3h7v6c1.5-2.1,3.4-3.7,5.8-5c2.4-1.3,5.1-1.9,8.2-1.9c3.4,0,6.2,0.6,8.4,1.9
				c2.2,1.3,3.7,3.1,4.6,5.4c3.7-4.9,8.4-7.4,14.3-7.4c4.6,0,8.1,1.2,10.6,3.5c2.5,2.3,3.7,5.9,3.7,10.7v29h-7.8V103
				c0-2.9-0.3-4.9-0.8-6.2c-0.5-1.3-1.4-2.3-2.8-3c-1.3-0.8-2.9-1.2-4.7-1.2c-3.2,0-5.9,1-8.1,3c-2.1,2-3.2,5.1-3.2,9.5v24.5h-7.8
				v-27.4c0-3.2-0.6-5.6-1.9-7.2c-1.3-1.6-3.4-2.4-6.3-2.4c-2.2,0-4.2,0.5-6.1,1.6c-1.9,1.1-3.2,2.6-4.1,4.7c-0.8,2-1.3,5-1.3,8.8
				v21.9H253.4z"/>
			<path fill="current" d="M359.2,129.6c-0.8-1.5-1.3-3.3-1.5-5.3c-2.9,2.3-5.7,3.9-8.4,4.8c-2.7,0.9-5.6,1.4-8.7,1.4
				c-5.1,0-9-1.1-11.7-3.4c-2.7-2.3-4.1-5.2-4.1-8.7c0-2.1,0.5-4,1.5-5.7c1-1.7,2.4-3.1,4.1-4.1c1.7-1,3.6-1.8,5.7-2.3
				c1.5-0.4,3.9-0.7,7-1.1c6.3-0.7,11-1.5,14-2.5c0-1,0-1.6,0-1.9c0-2.9-0.7-5-2.2-6.1c-2-1.6-5-2.4-9-2.4c-3.7,0-6.4,0.6-8.2,1.8
				c-1.8,1.2-3.1,3.3-3.9,6.3l-7.6-1c0.7-3,1.8-5.4,3.4-7.3c1.6-1.8,3.9-3.3,6.9-4.3c3-1,6.5-1.5,10.5-1.5c3.9,0,7.2,0.4,9.6,1.3
				c2.5,0.8,4.3,1.9,5.4,3.2c1.2,1.3,2,2.9,2.4,4.9c0.3,1.2,0.4,3.4,0.4,6.6v9.5c0,6.6,0.2,10.8,0.5,12.6c0.3,1.8,1,3.5,1.9,5.1
				H359.2L359.2,129.6z M357,108.4c-2.9,1.1-7.1,2-12.8,2.7c-3.2,0.4-5.5,0.9-6.9,1.4c-1.3,0.5-2.4,1.3-3.1,2.3
				c-0.7,1-1.1,2.2-1.1,3.4c0,1.9,0.8,3.5,2.4,4.8c1.6,1.3,3.9,1.9,7,1.9c3,0,5.7-0.6,8.1-1.8c2.4-1.2,4.1-2.9,5.2-4.9
				c0.8-1.6,1.3-4,1.3-7.2L357,108.4z"/>
			<path fill="current" d="M376.8,129.6V87.3h7v6.5c1.8-3,3.5-5,5-5.9c1.5-1,3.2-1.4,5-1.4c2.6,0,5.3,0.8,8,2.3l-2.7,6.6
				c-1.9-1-3.8-1.5-5.7-1.5c-1.7,0-3.2,0.5-4.6,1.4c-1.4,0.9-2.3,2.2-2.9,3.9c-0.9,2.5-1.3,5.3-1.3,8.3v22.1H376.8z"/>
			<path fill="current" d="M406.6,79.5v-8.1h7.8v8.1H406.6z M406.6,129.6V87.3h7.8v42.3H406.6z"/>
			<path fill="current" d="M440,123.5c0.9,0,2-0.1,3.4-0.3l1,6.3c-2.2,0.4-4.2,0.6-5.9,0.6c-2.8,0-5-0.4-6.6-1.2
				c-1.6-0.8-2.7-1.9-3.3-3.3c-0.6-1.3-1-4.2-1-8.5V92.9h-5.8v-5.5h5.8V76.9l7.8-4.3v14.7h7.9v5.5h-7.9v24.7c0,2,0.1,3.4,0.4,3.9
				c0.3,0.6,0.7,1.1,1.4,1.4C437.9,123.3,438.8,123.5,440,123.5L440,123.5z"/>
			<path fill="current" d="M482.7,129.6c-0.8-1.5-1.3-3.3-1.5-5.3c-2.9,2.3-5.7,3.9-8.4,4.8c-2.7,0.9-5.6,1.4-8.7,1.4
				c-5.1,0-9-1.1-11.7-3.4c-2.7-2.3-4.1-5.2-4.1-8.7c0-2.1,0.5-4,1.5-5.7c1-1.7,2.4-3.1,4.1-4.1c1.7-1,3.6-1.8,5.7-2.3
				c1.5-0.4,3.9-0.7,7-1.1c6.3-0.7,11-1.5,14-2.5c0-1,0-1.6,0-1.9c0-2.9-0.7-5-2.2-6.1c-2-1.6-5-2.4-9-2.4c-3.7,0-6.4,0.6-8.2,1.8
				c-1.8,1.2-3.1,3.3-3.9,6.3l-7.6-1c0.7-3,1.8-5.4,3.4-7.3c1.6-1.8,3.9-3.3,6.9-4.3c3-1,6.5-1.5,10.5-1.5c3.9,0,7.2,0.4,9.6,1.3
				c2.5,0.8,4.3,1.9,5.4,3.2c1.2,1.3,2,2.9,2.4,4.9c0.3,1.2,0.4,3.4,0.4,6.6v9.5c0,6.6,0.2,10.8,0.5,12.6c0.3,1.8,1,3.5,1.9,5.1
				H482.7L482.7,129.6z M480.6,108.4c-2.9,1.1-7.1,2-12.8,2.7c-3.2,0.4-5.5,0.9-6.9,1.4c-1.3,0.5-2.4,1.3-3.1,2.3
				c-0.7,1-1.1,2.2-1.1,3.4c0,1.9,0.8,3.5,2.4,4.8c1.6,1.3,3.9,1.9,7,1.9c3,0,5.7-0.6,8.1-1.8c2.4-1.2,4.1-2.9,5.2-4.9
				c0.8-1.6,1.3-4,1.3-7.2L480.6,108.4z"/>
			<path fill="current" d="M500.5,129.6V87.3h7v6c3.4-4.6,8.3-6.9,14.7-6.9c2.8,0,5.3,0.5,7.7,1.4c2.3,0.9,4.1,2.1,5.2,3.6
				c1.2,1.5,2,3.2,2.4,5.3c0.3,1.3,0.4,3.6,0.4,7v26h-7.8v-25.7c0-2.9-0.3-5.1-0.9-6.5c-0.6-1.4-1.7-2.6-3.2-3.5
				c-1.6-0.9-3.4-1.3-5.5-1.3c-3.3,0-6.2,1-8.6,2.9c-2.4,1.9-3.6,5.6-3.6,11v23.1H500.5z"/>
		</g>
	</g>
	<path fill="current" d="M93.2,64.6l-18.5-18c0,0-3.6-4.4-9.1,1L18.4,93.8l-2.5,2.7c0,0-4.5,4.1-0.6,8.3l34.4,34.1
		c0,0,5.2,1.3,8.6,1.3c0,0,8.3,0,14.3-3.1c0,0,9.4-3.9,11.7-12c0,0,2.3-6-0.5-10.4L73.1,100c0,0-5-7.3-1.6-16.7
		c0,0,3.6-9.4,11.2-14.3C82.8,69.1,90.6,65.1,93.2,64.6z"/>
	<path opacity="0.3" fill="current" d="M96.6,68c0,0-5.2-0.8-10.4,1.3c0,0-8.3,3.4-8.9,12.8c0,0,0.5,7,2.6,10.4
		c0,0,6.3,9.4,7.8,10.4c0,0,12,11.7,2.6,22.7c0,0-4.2,7.3-13.3,11.7c0,0-10.2,5.7-24,4.4l13.1,13.1c0,0,4.3,4.8,10.4-1.4l49.1-47.9
		c0,0,4.9-4.2-1.4-10.2L96.6,68z"/>
	<g>
		<path fill="current" d="M165.4,39.4c0.2-0.3,0.5-0.6,0.7-1c0.3-0.4,0.5-0.8,0.7-1.3c0.2-0.5,0.4-1,0.5-1.5c0.1-0.5,0.2-1,0.2-1.5
			c0-0.5-0.1-1-0.3-1.3c-0.2-0.3-0.4-0.6-0.7-0.8c-0.3-0.2-0.6-0.4-0.9-0.5c-0.4-0.1-0.7-0.1-1.1-0.1c-1,0-2.2,0.3-3.6,0.9
			c-1.5,0.6-3,1.4-4.6,2.4c-1.6,1-3.2,2.2-4.8,3.5c-1.6,1.4-3.1,2.8-4.4,4.4c-1.3,1.6-2.4,3.3-3.2,5c-0.8,1.8-1.2,3.5-1.2,5.3
			c0,1.1,0.1,2,0.4,2.7c0.2,0.7,0.6,1.3,1.2,1.7c0.5,0.4,1.2,0.7,2,0.9c0.8,0.2,1.7,0.3,2.8,0.3c1.3,0,2.6-0.2,3.9-0.5
			c1.3-0.3,2.5-0.7,3.6-1.1c0.8-0.3,1.6-0.6,2.4-1c0.9-0.4,1.7-0.8,2.5-1.2c0.8-0.4,1.5-0.8,2.2-1.2c0.6-0.4,1.1-0.7,1.5-1.1
			c0.2-0.2,0.4-0.5,0.6-0.7c0.1-0.3,0.3-0.5,0.5-0.7c0.2-0.2,0.4-0.3,0.5-0.5c0.2-0.1,0.3-0.2,0.4-0.2c0.2,0,0.4,0.2,0.4,0.5
			c0,0.3-0.2,0.6-0.5,0.9s-0.8,0.8-1.3,1.2c-0.4,0.3-0.9,0.7-1.5,1.1c-0.7,0.4-1.4,0.9-2.2,1.3c-0.8,0.5-1.6,0.9-2.5,1.4
			c-0.9,0.5-1.8,0.9-2.6,1.2c-1.1,0.5-2.4,0.9-4,1.3c-1.5,0.4-3,0.5-4.5,0.5c-1.2,0-2.3-0.1-3.2-0.4c-1-0.3-1.8-0.7-2.5-1.3
			c-0.7-0.6-1.3-1.4-1.7-2.3c-0.4-1-0.6-2.1-0.6-3.4c0-1.9,0.4-3.8,1.1-5.6c0.8-1.8,1.8-3.6,3-5.2c1.3-1.6,2.7-3.2,4.4-4.5
			c1.6-1.4,3.3-2.6,5.1-3.6c1.8-1,3.5-1.8,5.3-2.4c1.8-0.6,3.4-0.8,4.8-0.8c0.6,0,1.1,0.1,1.7,0.2c0.6,0.1,1.1,0.3,1.5,0.6
			c0.4,0.3,0.8,0.7,1.1,1.2c0.3,0.5,0.4,1.1,0.4,1.9c0,0.6-0.1,1.2-0.2,1.8c-0.1,0.6-0.3,1.1-0.5,1.6c-0.2,0.5-0.4,0.9-0.6,1.3
			s-0.3,0.7-0.4,0.8c-0.2,0.4-0.5,0.9-0.9,1.4c-0.4,0.5-0.8,0.9-1.3,1.3c-0.5,0.4-1,0.7-1.5,1c-0.5,0.3-1,0.4-1.5,0.4
			c-0.1,0-0.2,0-0.4-0.1c-0.2,0-0.4-0.1-0.7-0.2c-0.2-0.1-0.4-0.2-0.6-0.3c-0.2-0.1-0.3-0.3-0.3-0.4c0-0.2,0.2-0.4,0.5-0.7
			c0.3-0.3,0.7-0.6,1.2-0.9c0.5-0.3,0.9-0.5,1.4-0.8c0.5-0.2,0.8-0.3,1.1-0.3c0.3,0,0.5,0,0.7-0.1c0.2,0,0.3-0.1,0.5-0.2
			C165.2,39.6,165.3,39.5,165.4,39.4z"/>
		<path fill="current" d="M173.9,57.4c0-0.4,0.1-0.7,0.2-1.1c0.1-0.4,0.4-0.9,0.8-1.7l-0.2-0.1c-0.4,0.4-0.9,0.9-1.5,1.4
			c-0.6,0.5-1.2,1-1.9,1.4c-0.7,0.4-1.3,0.8-2,1.1c-0.7,0.3-1.3,0.5-1.9,0.5c-0.6,0-1-0.2-1.3-0.5c-0.3-0.3-0.5-0.8-0.5-1.3
			c0-0.5,0.1-0.9,0.3-1.5c0.2-0.5,0.5-1.1,0.9-1.6c0.4-0.5,0.8-1,1.3-1.5c0.5-0.5,1-0.9,1.5-1.2c1.1-0.7,2.1-1.3,3.2-1.6
			c1.1-0.4,2.1-0.6,3-0.6c0.5,0,1.1,0.1,1.6,0.2c0.5,0.2,0.9,0.3,1.3,0.6c0.3,0.2,0.6,0.5,0.8,0.8c0.2,0.3,0.3,0.5,0.3,0.8
			c0,0.1-0.1,0.3-0.2,0.4c-0.1,0.2-0.3,0.2-0.5,0.2c-0.2,0-0.4-0.1-0.5-0.3c-0.1-0.2-0.2-0.5-0.4-0.7c-0.2-0.3-0.4-0.5-0.7-0.7
			c-0.3-0.2-0.8-0.3-1.5-0.3c-0.7,0-1.4,0.2-2.1,0.6c-0.8,0.4-1.7,1-2.7,1.8c-0.6,0.5-1.1,0.9-1.6,1.4c-0.5,0.5-0.9,1-1.3,1.4
			c-0.4,0.5-0.6,0.9-0.8,1.2c-0.2,0.4-0.3,0.6-0.3,0.8c0,0.6,0.2,0.9,0.7,0.9c0.3,0,0.8-0.1,1.3-0.4c0.6-0.3,1.2-0.6,1.8-1
			c0.6-0.4,1.2-0.9,1.8-1.4c0.6-0.5,1.1-1,1.5-1.4c0.6-0.7,1.1-1.2,1.3-1.5c0.2-0.3,0.4-0.6,0.6-0.9c0.1-0.2,0.2-0.4,0.4-0.5
			c0.1-0.2,0.3-0.2,0.4-0.2c0.2,0,0.3,0.1,0.4,0.2c0.1,0.1,0.2,0.3,0.4,0.5c0.1,0.2,0.2,0.4,0.3,0.6c0.1,0.2,0.1,0.4,0.1,0.5
			c0,0.1,0,0.4-0.1,0.6c-0.1,0.3-0.1,0.5-0.3,0.7c-0.1,0.2-0.2,0.4-0.4,0.6c-0.2,0.2-0.3,0.2-0.5,0.2c-0.1,0-0.2,0.1-0.4,0.3
			c-0.2,0.2-0.3,0.5-0.5,0.8c-0.1,0.3-0.3,0.6-0.4,0.9c-0.1,0.3-0.2,0.6-0.2,0.9c0,0.3,0.1,0.4,0.3,0.5c0.2,0.1,0.3,0.1,0.5,0.1
			c0.4,0,0.9-0.1,1.5-0.3c0.6-0.2,1.3-0.5,1.9-0.8c0.7-0.3,1.3-0.7,1.9-1.1s1.1-0.7,1.4-1c0.2-0.2,0.3-0.4,0.3-0.5
			c0-0.1,0.1-0.3,0.3-0.5c0.4-0.3,0.7-0.5,0.9-0.5c0,0,0.1,0,0.1,0.1c0,0.1,0.1,0.2,0.1,0.2c0,0.2-0.1,0.5-0.4,0.8
			c-0.3,0.3-0.7,0.7-1.2,1c-0.5,0.4-1.1,0.7-1.7,1.1c-0.6,0.4-1.3,0.7-2,1c-0.7,0.3-1.4,0.6-2,0.8c-0.7,0.2-1.3,0.3-1.9,0.3
			c-0.4,0-0.8-0.1-1.2-0.4S173.9,57.8,173.9,57.4z"/>
		<path fill="current" d="M186.3,58.4c-0.1,0.2-0.3,0.3-0.5,0.3c-0.3,0-0.5-0.1-0.6-0.4c-0.1-0.3-0.2-0.6-0.2-0.8
			c0-0.1,0.1-0.4,0.3-0.7c0.2-0.3,0.4-0.7,0.6-1.1c0.2-0.4,0.5-0.8,0.7-1.1c0.2-0.4,0.4-0.6,0.5-0.8c0.1-0.2,0.3-0.4,0.3-0.6
			c0.1-0.1,0.1-0.4,0.1-0.6c0-0.1,0-0.2,0-0.3c0-0.1,0-0.2,0-0.3c0-0.5,0.1-0.9,0.4-1.3c0.2-0.4,0.5-0.8,0.8-1.1
			c0.1-0.2,0.3-0.3,0.4-0.4s0.3-0.2,0.6-0.2c0.3,0,0.6,0.2,0.8,0.5c0.2,0.4,0.3,0.6,0.3,0.9c0,0.1,0,0.3-0.1,0.4
			c0,0.1-0.1,0.2-0.1,0.3l-2.4,3.5c0,0.1,0,0.2,0,0.2c0.5-0.4,1-1,1.6-1.6c0.6-0.6,1.3-1.3,1.9-1.9s1.3-1.1,2-1.5
			c0.6-0.4,1.3-0.6,1.8-0.6c1,0,1.4,0.6,1.4,1.7c0,0.2,0,0.5-0.1,0.8c-0.1,0.3-0.2,0.5-0.3,0.8c-0.1,0.3-0.3,0.5-0.4,0.6
			c-0.1,0.2-0.3,0.3-0.4,0.3c-0.1,0-0.2-0.1-0.3-0.2c-0.1-0.1-0.2-0.3-0.2-0.5c-0.1-0.2-0.1-0.4-0.2-0.6c0-0.2-0.1-0.3-0.1-0.4
			c0-0.2,0.1-0.5,0.2-0.6c0.2-0.2,0.2-0.3,0.2-0.5c0-0.2-0.1-0.3-0.3-0.3c-0.4,0-0.8,0.2-1.3,0.5c-0.5,0.3-1.1,0.8-1.7,1.3
			c-0.6,0.5-1.2,1.1-1.8,1.7c-0.6,0.6-1.2,1.3-1.7,1.9c-0.6,0.6-1,1.2-1.5,1.7C186.9,57.7,186.5,58.1,186.3,58.4z"/>
		<path fill="current" d="M202.6,52.1c0-0.1,0-0.3,0-0.4c0-0.1,0-0.2,0-0.3c0-0.3,0.1-0.7,0.4-1c0.2-0.3,0.5-0.6,0.8-1.1
			c0.2-0.3,0.4-0.5,0.6-0.5c0.1,0,0.3,0.1,0.4,0.4c0.1,0.2,0.3,0.5,0.5,0.9c0,0.1,0.1,0.3,0.1,0.4c0,0.1,0,0.3,0,0.4
			c0,0.3-0.2,0.7-0.5,1.2c-0.4,0.5-0.8,1.1-1.2,1.7c-0.5,0.6-0.9,1.3-1.2,1.9c-0.4,0.7-0.5,1.2-0.5,1.8c0,0.1,0,0.2,0.1,0.3
			c0.1,0.1,0.2,0.1,0.4,0.1c0.4,0,1-0.1,1.6-0.3c0.6-0.2,1.3-0.5,2-0.8c0.7-0.3,1.3-0.7,1.9-1c0.6-0.4,1.1-0.8,1.5-1.1
			c0.2-0.2,0.3-0.4,0.3-0.5c0-0.1,0.1-0.3,0.3-0.5c0.4-0.3,0.7-0.5,0.8-0.5c0.2,0,0.3,0.1,0.3,0.3c0,0.4-0.5,0.9-1.5,1.7
			c-0.5,0.4-1.1,0.8-1.7,1.2c-0.6,0.4-1.3,0.7-2,1.1c-0.7,0.3-1.4,0.6-2,0.8c-0.7,0.2-1.3,0.3-1.8,0.3c-0.4,0-0.8-0.1-1.1-0.4
			c-0.3-0.2-0.5-0.6-0.5-1c0-0.5,0.1-0.9,0.4-1.5c0.3-0.5,0.5-1,0.8-1.5c0.3-0.5,0.6-1,0.8-1.4C202.5,52.6,202.6,52.3,202.6,52.1z
			 M207.6,44.8c0.1,0.2,0.3,0.5,0.4,0.8c0.2,0.3,0.2,0.6,0.2,0.9c0,0.4-0.1,0.7-0.5,1.1c-0.3,0.4-0.6,0.6-1,0.6
			c-0.3,0-0.5-0.1-0.8-0.5c-0.3-0.3-0.4-0.6-0.4-0.8c0-0.3,0.1-0.6,0.3-0.9c0.2-0.3,0.4-0.5,0.6-0.8c0.1-0.2,0.2-0.4,0.2-0.5
			c0-0.1,0.1-0.2,0.4-0.2c0.1,0,0.2,0,0.3,0.1C207.5,44.6,207.6,44.7,207.6,44.8z"/>
		<path fill="current" d="M220.3,57.5c0-0.6,0.1-1.2,0.4-1.9c0.3-0.6,0.6-1.2,1-1.8c0.4-0.6,0.7-1.1,1-1.6c0.3-0.5,0.5-0.9,0.5-1.2
			c0-0.3-0.1-0.5-0.4-0.5c-0.4,0-0.9,0.1-1.5,0.4c-0.6,0.3-1.2,0.6-1.9,1.1c-0.7,0.4-1.4,0.9-2.1,1.5c-0.7,0.6-1.4,1.1-2,1.7
			c-0.6,0.6-1.2,1.2-1.6,1.7s-0.8,1.1-1,1.5c0,0.1-0.1,0.2-0.2,0.2c-0.1,0-0.2,0.1-0.2,0.1c-0.2,0-0.5-0.1-0.6-0.3
			c-0.2-0.2-0.2-0.5-0.2-0.8c0-0.1,0.1-0.4,0.3-0.8c0.2-0.4,0.4-0.8,0.7-1.3c0.3-0.5,0.5-0.9,0.7-1.3c0.2-0.4,0.4-0.7,0.5-0.8
			c0.1-0.2,0.3-0.5,0.4-0.7c0.1-0.3,0.2-0.5,0.2-0.7c0-0.1,0-0.2,0-0.3c0-0.1,0-0.2,0-0.3c0-0.3,0.1-0.7,0.4-1
			c0.2-0.3,0.5-0.6,0.8-1.1c0.1-0.1,0.2-0.2,0.3-0.3c0.1-0.1,0.2-0.1,0.4-0.1c0.1,0,0.2,0.1,0.3,0.2c0.1,0.1,0.2,0.3,0.3,0.5
			c0.1,0.2,0.2,0.4,0.2,0.5c0.1,0.2,0.1,0.3,0.1,0.4c0,0.1,0,0.3-0.1,0.4c0,0.1-0.1,0.2-0.1,0.3c-0.1,0.1-0.2,0.4-0.5,0.7
			c-0.2,0.4-0.5,0.8-0.8,1.2c-0.3,0.4-0.6,0.8-0.8,1.2c-0.2,0.4-0.4,0.6-0.4,0.7c0.5-0.4,1.1-1,2-1.6c0.8-0.7,1.7-1.3,2.7-2
			c0.9-0.6,1.9-1.2,2.8-1.7c0.9-0.5,1.7-0.7,2.3-0.7c0.5,0,0.9,0.1,1.1,0.4c0.2,0.3,0.3,0.6,0.3,0.9c0,0.6-0.2,1.2-0.6,1.9
			c-0.4,0.7-0.8,1.3-1.3,2c-0.5,0.6-0.9,1.2-1.3,1.8c-0.4,0.6-0.6,1.1-0.6,1.5c0,0.1,0.1,0.2,0.2,0.4c0.1,0.1,0.3,0.2,0.5,0.2
			c0.5,0,1-0.1,1.7-0.3c0.6-0.2,1.3-0.5,2-0.8c0.6-0.3,1.3-0.7,1.9-1.1c0.6-0.4,1.1-0.8,1.5-1.1c0.2-0.2,0.3-0.4,0.3-0.5
			c0-0.1,0.1-0.3,0.3-0.5c0.4-0.3,0.6-0.5,0.8-0.5c0.1,0,0.2,0,0.2,0.1c0,0.1,0.1,0.2,0.1,0.2c0,0.4-0.5,0.9-1.5,1.7
			c-0.5,0.4-1.1,0.8-1.7,1.2c-0.6,0.4-1.3,0.8-2,1.1c-0.7,0.3-1.4,0.5-2,0.7c-0.7,0.2-1.3,0.3-1.9,0.3c-0.5,0-0.8-0.1-1.1-0.3
			C220.4,58.2,220.3,57.9,220.3,57.5z"/>
		<path fill="current" d="M241.3,54.7c-0.9,0.8-1.7,1.5-2.6,2.1c-0.7,0.5-1.5,1-2.4,1.4c-0.9,0.4-1.7,0.6-2.4,0.6
			c-0.5,0-0.9-0.2-1.1-0.5c-0.3-0.4-0.4-0.7-0.4-1.2c0-0.9,0.3-1.8,0.9-2.7c0.6-0.9,1.4-1.8,2.4-2.6c1-0.8,2.1-1.4,3.3-2
			c1.2-0.5,2.4-0.8,3.5-0.8c0.6,0,1.2,0.1,1.7,0.2c0.5,0.2,0.9,0.4,1.2,0.6c0.3,0.2,0.6,0.5,0.8,0.8c0.2,0.3,0.3,0.5,0.3,0.7
			c0,0.1-0.1,0.3-0.2,0.4c-0.1,0.1-0.3,0.2-0.4,0.2c-0.2,0-0.4-0.1-0.5-0.3c-0.1-0.2-0.2-0.4-0.3-0.6c-0.3-0.8-1.1-1.2-2.2-1.2
			c-0.8,0-1.6,0.3-2.6,0.8c-1,0.6-2,1.2-2.9,2c-0.9,0.8-1.7,1.6-2.4,2.5c-0.7,0.9-1,1.6-1,2.2c0,0.1,0,0.3,0.1,0.4
			c0.1,0.1,0.2,0.2,0.3,0.2c0.4,0,0.9-0.1,1.6-0.4c0.6-0.3,1.3-0.6,2-1.1c0.7-0.4,1.3-0.9,1.9-1.4c0.6-0.5,1.1-0.9,1.5-1.3
			c0.7-0.7,1.2-1.3,1.5-1.7c0.3-0.4,0.5-0.7,0.5-0.8c0,0,0.1-0.2,0.1-0.3c0.1-0.2,0.2-0.3,0.3-0.3c0.1,0,0.2,0,0.3,0.1
			c0.1,0.1,0.1,0.1,0.2,0.2c0.3,0.4,0.5,0.9,0.5,1.5c0,0.1,0,0.3-0.1,0.6c-0.1,0.2-0.1,0.5-0.2,0.7c-0.1,0.2-0.2,0.4-0.4,0.5
			c-0.2,0.2-0.3,0.2-0.5,0.2c-0.2,0-0.5,0.5-1,1.4c-0.5,1-1.1,2.2-2,3.8c1.1-0.3,2-0.7,2.9-1.1c0.8-0.4,1.6-0.7,2.2-1.1
			c0.6-0.3,1.1-0.6,1.5-0.9c0.4-0.3,0.7-0.5,1-0.7c0.2-0.1,0.3-0.4,0.3-0.7c0-0.3,0.1-0.6,0.3-0.7c0.2-0.1,0.4-0.3,0.5-0.4
			c0.2-0.1,0.3-0.2,0.5-0.2c0.1,0,0.2,0,0.3,0.1c0.1,0.1,0.2,0.2,0.2,0.3c0,0.2-0.1,0.4-0.2,0.6c-0.1,0.2-0.3,0.4-0.4,0.6
			c-0.2,0.2-0.4,0.4-0.6,0.6s-0.4,0.4-0.6,0.5c-1,0.8-2.2,1.5-3.7,2.2c-1.4,0.7-3,1.3-4.7,1.8c-0.7,1.2-1.3,2.5-2.1,3.8
			c-0.7,1.3-1.5,2.7-2.4,4.1c-0.8,1.3-1.7,2.5-2.8,3.7c-1,1.2-2.1,2.2-3.2,3.1c-1.1,0.9-2.2,1.6-3.3,2.2c-1.1,0.5-2.2,0.8-3.2,0.8
			c-0.6,0-1.2-0.1-1.7-0.3c-0.5-0.2-1-0.5-1.4-0.9c-0.4-0.4-0.7-0.8-0.9-1.3c-0.2-0.5-0.3-1-0.3-1.6c0-0.6,0.1-1.3,0.4-2
			c0.2-0.7,0.6-1.4,1-2.1c0.4-0.7,1-1.3,1.6-2c0.6-0.7,1.3-1.3,2-1.8c1.1-0.8,2.1-1.5,3.1-2.1c1-0.6,2-1.1,3.2-1.5
			c1.1-0.4,2.3-0.9,3.7-1.2c1.4-0.4,3-0.8,4.8-1.2c0.7-1.3,1.2-2.3,1.6-3.2c0.4-0.8,0.8-1.6,1.1-2.3L241.3,54.7z M234,68
			c0.9-1.4,1.6-2.6,2.3-3.7c0.7-1.1,1.3-2.2,1.9-3.3c-1.6,0.4-3.1,0.8-4.4,1.1c-1.3,0.4-2.4,0.8-3.5,1.2c-1.1,0.5-2.1,1-3,1.5
			c-0.9,0.5-1.9,1.2-2.9,2c-0.6,0.5-1.2,1-1.7,1.6c-0.5,0.6-1,1.3-1.3,1.9c-0.4,0.7-0.7,1.3-0.9,1.9c-0.2,0.6-0.3,1.2-0.3,1.7
			c0,0.7,0.3,1.3,0.8,1.8c0.5,0.5,1.2,0.7,2,0.7c0.8,0,1.6-0.2,2.6-0.7c1-0.5,1.9-1.1,2.9-1.9c1-0.8,2-1.7,2.9-2.7
			C232.4,70.2,233.3,69.1,234,68z"/>
		<path fill="current" d="M254.2,56.3c0.5,0,0.9,0.2,1.1,0.5c0.3,0.3,0.4,0.6,0.4,0.9c0,0.3-0.1,0.7-0.4,1.1c-0.3,0.4-0.6,0.6-1,0.6
			c-0.1,0-0.2,0-0.4-0.1c-0.2-0.1-0.3-0.1-0.5-0.2c-0.1-0.1-0.3-0.2-0.4-0.3c-0.1-0.1-0.2-0.2-0.2-0.3c0-0.2,0.1-0.3,0.2-0.5
			c0.2-0.2,0.3-0.4,0.5-0.8c0-0.1,0-0.2,0.1-0.3c0-0.1,0-0.2,0-0.3c0-0.1,0.1-0.2,0.1-0.2C254,56.3,254.1,56.3,254.2,56.3z"/>
		<path fill="current" d="M308.2,31.7c0.3,0,0.5,0.1,0.7,0.4c0.2,0.3,0.3,0.5,0.3,0.8c0,0.2-0.1,0.4-0.1,0.7
			c-0.1,0.3-0.3,0.5-0.5,0.8c-0.4,0.6-0.8,1-1.4,1.4c-0.5,0.4-1,0.6-1.3,0.6c-0.4,0-0.9,0.2-1.5,0.6c-0.6,0.4-1.3,1-2,1.8
			c-0.7,0.8-1.5,1.6-2.3,2.7c-0.8,1-1.6,2.1-2.5,3.3c-0.3,0.4-0.6,0.8-0.9,1.3c-0.3,0.4-0.6,0.9-0.8,1.3c1.1,0.7,1.8,1.1,1.8,1.2
			c0,0.1,0.1,0.2,0.1,0.5c0,0.1,0,0.2-0.1,0.3c-0.1,0.1-0.1,0.1-0.2,0.1c-0.1,0-0.2,0-0.3-0.1c-0.1-0.1-0.3-0.2-0.6-0.4
			c-0.3-0.2-0.7-0.5-1.2-0.8c-1.2,2-2.2,3.9-3.1,5.9c-0.9,2-1.6,3.6-2.1,5.1c-0.1,0.2-0.2,0.3-0.4,0.3c-0.1,0-0.3-0.1-0.5-0.1
			c-0.2-0.1-0.3-0.2-0.5-0.4c-0.2-0.2-0.3-0.3-0.4-0.5c-0.1-0.2-0.2-0.4-0.2-0.6c0-0.2,0-0.4,0.1-0.6c0.6-1.3,1.3-2.8,2.3-4.5
			c1-1.7,2.1-3.5,3.5-5.4c-1.5-1-3-1.8-4.5-2.5c-1.5-0.7-3.1-1.5-4.9-2.2c-0.4,0.7-0.9,1.4-1.3,2c-0.4,0.7-0.9,1.4-1.3,2.1
			c-0.5,0.7-1,1.5-1.5,2.3c-0.5,0.8-1.1,1.6-1.7,2.5c-1.7,2.5-3.2,4.6-4.6,6.6c-1.4,1.9-2.7,3.6-3.9,4.9c-1.2,1.3-2.3,2.3-3.3,3
			c-1,0.7-2,1-2.9,1c-0.4,0-0.9-0.1-1.2-0.3c-0.4-0.2-0.6-0.4-0.6-0.6c0-0.1,0.1-0.3,0.3-0.6c0.2-0.3,0.5-0.6,0.8-0.9
			c0.3-0.3,0.7-0.6,1.1-0.9c0.4-0.3,0.7-0.4,1.1-0.4c0.5,0,1.2-0.3,2-1c0.8-0.7,1.7-1.5,2.8-2.7c1-1.1,2.1-2.5,3.3-4.1
			c1.2-1.6,2.5-3.2,3.8-5c1-1.4,2-2.8,2.9-4.2c0.9-1.4,1.9-2.9,2.9-4.5c-2.1-0.8-3.9-1.4-5.2-1.7c-1.3-0.4-2.4-0.6-3.1-0.6
			c-0.2,0-0.4,0-0.5,0.1s-0.3,0.1-0.5,0.2c-0.1,0.1-0.3,0.2-0.4,0.2c-0.2,0.1-0.3,0.1-0.5,0.1c-0.1,0-0.3,0-0.7,0
			c-0.3,0-0.6-0.1-0.9-0.1c-0.3,0-0.6-0.1-0.8-0.2c-0.3-0.1-0.4-0.3-0.4-0.4c0-0.3,0.2-0.6,0.5-1c0.4-0.3,0.7-0.5,1-0.5
			c0.1,0,0.3,0,0.5,0c0.2,0,0.4,0,0.6,0.1c0.5,0.1,1,0.2,1.6,0.3c0.6,0.1,1.3,0.2,2.2,0.5c0.9,0.2,1.9,0.5,3,0.9
			c1.2,0.4,2.6,0.9,4.2,1.5c0.5-0.9,1-1.6,1.3-2.3c0.3-0.6,0.6-1.2,0.8-1.7c0.2-0.5,0.3-0.9,0.4-1.3c0.1-0.4,0.1-0.7,0.1-1
			c0-0.3,0-0.5,0-0.8c0-0.2,0-0.4,0-0.4c0-0.4,0.1-0.7,0.2-0.9c0.1-0.2,0.3-0.5,0.6-0.9c0.3-0.4,0.6-0.8,1-1.1s0.8-0.5,1.2-0.5
			c0.1,0,0.3,0,0.5,0c0.2,0,0.5,0.1,0.7,0.1c0.2,0.1,0.4,0.1,0.6,0.2c0.2,0.1,0.3,0.2,0.3,0.4c0,0.1-0.1,0.3-0.2,0.5
			c-0.3,0.5-1,1.6-1.9,3.3c-0.9,1.7-2.3,4.1-4.1,7c1.6,0.7,3.1,1.4,4.6,2.2c1.5,0.8,3.1,1.6,4.7,2.6c0.3-0.4,0.5-0.8,0.8-1.1
			c0.3-0.4,0.6-0.8,0.9-1.2c0.9-1.3,1.9-2.5,2.9-3.7c1-1.2,2-2.3,2.9-3.4c0.9-1.1,1.9-2,2.7-2.9c0.9-0.8,1.6-1.6,2.3-2.1
			c0.1-0.1,0.3-0.3,0.6-0.4C307.9,31.8,308.1,31.7,308.2,31.7z"/>
		<path fill="current" d="M310,50.3c0,0.4-0.2,0.9-0.6,1.4c-0.4,0.5-0.9,0.9-1.6,1.3c-0.7,0.4-1.4,0.7-2.2,1
			c-0.8,0.3-1.6,0.4-2.3,0.4c-0.1,0-0.3,0-0.4,0s-0.3,0-0.4-0.1c-0.6,0.8-0.9,1.6-0.9,2.4c0,0.5,0.2,0.9,0.6,1.1
			c0.4,0.2,0.9,0.3,1.4,0.3c0.7,0,1.5-0.1,2.3-0.3c0.8-0.2,1.7-0.4,2.6-0.8c0.9-0.3,1.7-0.7,2.5-1.1c0.8-0.4,1.5-0.9,2.1-1.4
			c0.2-0.2,0.3-0.4,0.4-0.5c0-0.2,0.2-0.4,0.4-0.5c0.4-0.3,0.6-0.5,0.8-0.5c0.1,0,0.2,0,0.2,0.1c0,0.1,0.1,0.2,0.1,0.2
			c0,0.2-0.2,0.5-0.5,0.8c-0.4,0.3-0.8,0.7-1.3,1.1c-0.6,0.4-1.3,0.9-2.1,1.3c-0.8,0.4-1.6,0.8-2.5,1.2c-0.9,0.4-1.7,0.6-2.6,0.9
			c-0.9,0.2-1.7,0.3-2.4,0.3c-0.5,0-0.9-0.1-1.3-0.1s-0.8-0.3-1.1-0.5c-0.3-0.2-0.6-0.5-0.8-0.8c-0.2-0.3-0.3-0.8-0.3-1.3
			c0-0.7,0.2-1.5,0.7-2.3s1.1-1.6,2-2.4c1-0.9,2-1.5,3-1.8c1-0.3,1.8-0.5,2.6-0.5c0.5,0,0.9,0.1,1.3,0.2
			C309.8,49.5,310,49.8,310,50.3z M309,50.5c0-0.1-0.1-0.2-0.2-0.3c-0.1-0.1-0.3-0.1-0.5-0.1c-0.3,0-0.7,0.1-1.2,0.4
			c-0.5,0.2-1,0.5-1.6,0.9c-0.5,0.4-1.1,0.8-1.6,1.2c-0.5,0.4-0.9,0.8-1.2,1.2c0.1,0,0.2,0,0.4,0c0.1,0,0.2,0,0.4,0
			c0.7,0,1.3-0.1,2-0.3c0.7-0.2,1.3-0.5,1.8-0.8c0.5-0.3,0.9-0.7,1.3-1.1C308.9,51.1,309,50.8,309,50.5z"/>
		<path fill="current" d="M324.1,57.4c0-0.4,0.1-0.7,0.2-1.1c0.1-0.4,0.4-0.9,0.8-1.7l-0.2-0.1c-0.4,0.4-0.9,0.9-1.5,1.4
			c-0.6,0.5-1.2,1-1.9,1.4c-0.7,0.4-1.3,0.8-2,1.1c-0.7,0.3-1.3,0.5-1.9,0.5c-0.6,0-1-0.2-1.3-0.5c-0.3-0.3-0.5-0.8-0.5-1.3
			c0-0.5,0.1-0.9,0.3-1.5c0.2-0.5,0.5-1.1,0.9-1.6c0.4-0.5,0.8-1,1.3-1.5c0.5-0.5,1-0.9,1.5-1.2c1.1-0.7,2.1-1.3,3.2-1.6
			c1.1-0.4,2.1-0.6,3-0.6c0.5,0,1.1,0.1,1.6,0.2c0.5,0.2,0.9,0.3,1.3,0.6c0.3,0.2,0.6,0.5,0.8,0.8c0.2,0.3,0.3,0.5,0.3,0.8
			c0,0.1-0.1,0.3-0.2,0.4c-0.1,0.2-0.3,0.2-0.5,0.2c-0.2,0-0.4-0.1-0.5-0.3c-0.1-0.2-0.2-0.5-0.4-0.7c-0.2-0.3-0.4-0.5-0.7-0.7
			c-0.3-0.2-0.8-0.3-1.5-0.3c-0.7,0-1.4,0.2-2.1,0.6c-0.8,0.4-1.7,1-2.7,1.8c-0.6,0.5-1.1,0.9-1.6,1.4c-0.5,0.5-0.9,1-1.3,1.4
			c-0.4,0.5-0.6,0.9-0.8,1.2c-0.2,0.4-0.3,0.6-0.3,0.8c0,0.6,0.2,0.9,0.7,0.9c0.3,0,0.8-0.1,1.3-0.4c0.6-0.3,1.2-0.6,1.8-1
			c0.6-0.4,1.2-0.9,1.8-1.4c0.6-0.5,1.1-1,1.5-1.4c0.6-0.7,1.1-1.2,1.3-1.5c0.2-0.3,0.4-0.6,0.6-0.9c0.1-0.2,0.2-0.4,0.4-0.5
			c0.1-0.2,0.3-0.2,0.4-0.2c0.2,0,0.3,0.1,0.4,0.2c0.1,0.1,0.2,0.3,0.4,0.5c0.1,0.2,0.2,0.4,0.3,0.6c0.1,0.2,0.1,0.4,0.1,0.5
			c0,0.1,0,0.4-0.1,0.6c-0.1,0.3-0.1,0.5-0.3,0.7c-0.1,0.2-0.2,0.4-0.4,0.6c-0.2,0.2-0.3,0.2-0.5,0.2c-0.1,0-0.2,0.1-0.4,0.3
			c-0.2,0.2-0.3,0.5-0.5,0.8c-0.1,0.3-0.3,0.6-0.4,0.9c-0.1,0.3-0.2,0.6-0.2,0.9c0,0.3,0.1,0.4,0.3,0.5c0.2,0.1,0.3,0.1,0.5,0.1
			c0.4,0,0.9-0.1,1.5-0.3c0.6-0.2,1.3-0.5,1.9-0.8c0.7-0.3,1.3-0.7,1.9-1.1s1.1-0.7,1.4-1c0.2-0.2,0.3-0.4,0.3-0.5
			c0-0.1,0.1-0.3,0.3-0.5c0.4-0.3,0.7-0.5,0.9-0.5c0,0,0.1,0,0.1,0.1c0,0.1,0.1,0.2,0.1,0.2c0,0.2-0.1,0.5-0.4,0.8
			c-0.3,0.3-0.7,0.7-1.2,1c-0.5,0.4-1.1,0.7-1.7,1.1c-0.6,0.4-1.3,0.7-2,1c-0.7,0.3-1.4,0.6-2,0.8c-0.7,0.2-1.3,0.3-1.9,0.3
			c-0.4,0-0.8-0.1-1.2-0.4S324.1,57.8,324.1,57.4z"/>
		<path fill="current" d="M336.6,57.1c0-0.7,0.2-1.5,0.5-2.5c0.4-0.9,0.8-1.8,1.3-2.6c0.2-0.3,0.5-0.8,1-1.6c0.5-0.7,1-1.6,1.5-2.5
			c0.6-0.9,1.1-1.9,1.8-2.9c0.6-1,1.2-1.9,1.7-2.8c0.5-0.8,1-1.6,1.3-2.2c0.4-0.6,0.6-0.9,0.6-1c0.2-0.4,0.3-0.6,0.5-0.9
			c0.1-0.2,0.2-0.5,0.2-0.8c0,0,0-0.1,0-0.2c0-0.1,0-0.2,0-0.4c0-0.4,0.1-0.8,0.3-1.2c0.2-0.4,0.5-0.7,0.7-1.1
			c0.1-0.2,0.3-0.3,0.5-0.4c0.2-0.1,0.4-0.2,0.6-0.2c0.1,0,0.3,0.1,0.4,0.2c0.1,0.1,0.2,0.3,0.3,0.5c0.1,0.2,0.2,0.4,0.2,0.5
			c0.1,0.2,0.1,0.3,0.1,0.4c0,0.1,0,0.3-0.1,0.4c0,0.1-0.1,0.2-0.1,0.3c-0.1,0.1-0.2,0.3-0.4,0.6c-0.2,0.3-0.4,0.6-0.6,1
			c-0.2,0.4-0.5,0.8-0.7,1.2c-0.2,0.4-0.5,0.8-0.7,1.2c-0.8,1.4-1.6,2.7-2.5,4c-0.8,1.3-1.6,2.5-2.3,3.6c-0.7,1.1-1.3,2.1-1.8,2.9
			c-0.5,0.9-0.9,1.5-1.1,1.9c-0.5,0.8-0.9,1.7-1.3,2.5c-0.4,0.8-0.6,1.5-0.6,2c0,0.2,0.1,0.3,0.2,0.5c0.1,0.2,0.3,0.2,0.5,0.2
			c0.5,0,1.1-0.1,1.7-0.3c0.6-0.2,1.3-0.5,1.9-0.8c0.6-0.3,1.3-0.7,1.9-1s1.1-0.8,1.5-1.1c0.2-0.2,0.3-0.4,0.3-0.5
			c0-0.1,0.1-0.3,0.3-0.5c0.4-0.3,0.6-0.4,0.8-0.4c0.2,0,0.3,0.1,0.3,0.3c0,0.2-0.1,0.4-0.4,0.7c-0.3,0.3-0.7,0.6-1.3,1.1
			c-0.5,0.4-1.1,0.8-1.7,1.2c-0.6,0.4-1.2,0.7-1.9,1c-0.7,0.3-1.3,0.5-1.9,0.7c-0.7,0.2-1.3,0.3-1.9,0.3c-0.6,0-1-0.2-1.2-0.5
			C336.7,58,336.6,57.6,336.6,57.1z"/>
		<path fill="current" d="M350.8,52.1c0-0.1,0-0.3,0-0.4c0-0.1,0-0.2,0-0.3c0-0.3,0.1-0.7,0.4-1c0.2-0.3,0.5-0.6,0.8-1.1
			c0.2-0.3,0.4-0.5,0.6-0.5c0.1,0,0.3,0.1,0.4,0.4c0.2,0.2,0.3,0.5,0.5,0.9c0,0.1,0.1,0.3,0.1,0.4c0,0.1,0,0.3,0,0.4
			c0,0.3-0.2,0.7-0.5,1.2c-0.4,0.5-0.8,1.1-1.2,1.7c-0.4,0.6-0.9,1.3-1.2,1.9c-0.4,0.7-0.5,1.2-0.5,1.8c0,0.1,0,0.2,0.1,0.3
			c0.1,0.1,0.2,0.1,0.4,0.1c0.4,0,1-0.1,1.6-0.3c0.6-0.2,1.3-0.5,2-0.8c0.7-0.3,1.3-0.7,1.9-1c0.6-0.4,1.1-0.8,1.5-1.1
			c0.2-0.2,0.3-0.4,0.3-0.5c0-0.1,0.1-0.3,0.3-0.5c0.4-0.3,0.7-0.5,0.8-0.5c0.2,0,0.3,0.1,0.3,0.3c0,0.4-0.5,0.9-1.5,1.7
			c-0.5,0.4-1.1,0.8-1.7,1.2c-0.6,0.4-1.3,0.7-2,1.1c-0.7,0.3-1.4,0.6-2,0.8s-1.3,0.3-1.8,0.3c-0.5,0-0.8-0.1-1.1-0.4
			s-0.5-0.6-0.5-1c0-0.5,0.1-0.9,0.4-1.5c0.3-0.5,0.5-1,0.8-1.5c0.3-0.5,0.6-1,0.8-1.4C350.7,52.6,350.8,52.3,350.8,52.1z
			 M355.9,44.8c0.1,0.2,0.3,0.5,0.4,0.8c0.2,0.3,0.2,0.6,0.2,0.9c0,0.4-0.2,0.7-0.5,1.1c-0.3,0.4-0.6,0.6-1,0.6
			c-0.3,0-0.5-0.1-0.8-0.5c-0.3-0.3-0.4-0.6-0.4-0.8c0-0.3,0.1-0.6,0.3-0.9c0.2-0.3,0.4-0.5,0.6-0.8c0.1-0.2,0.2-0.4,0.2-0.5
			c0-0.1,0.1-0.2,0.4-0.2c0.1,0,0.2,0,0.3,0.1C355.8,44.6,355.8,44.7,355.9,44.8z"/>
		<path fill="current" d="M368.5,57.5c0-0.6,0.2-1.2,0.4-1.9c0.3-0.6,0.6-1.2,1-1.8s0.7-1.1,1-1.6c0.3-0.5,0.5-0.9,0.5-1.2
			c0-0.3-0.1-0.5-0.4-0.5c-0.4,0-0.9,0.1-1.5,0.4c-0.6,0.3-1.2,0.6-1.9,1.1c-0.7,0.4-1.4,0.9-2.1,1.5c-0.7,0.6-1.4,1.1-2,1.7
			c-0.6,0.6-1.2,1.2-1.6,1.7c-0.5,0.6-0.8,1.1-1,1.5c0,0.1-0.1,0.2-0.2,0.2c-0.1,0-0.2,0.1-0.2,0.1c-0.3,0-0.5-0.1-0.6-0.3
			c-0.2-0.2-0.2-0.5-0.2-0.8c0-0.1,0.1-0.4,0.3-0.8c0.2-0.4,0.4-0.8,0.7-1.3c0.3-0.5,0.5-0.9,0.7-1.3c0.2-0.4,0.4-0.7,0.5-0.8
			c0.2-0.2,0.3-0.5,0.4-0.7c0.1-0.3,0.2-0.5,0.2-0.7c0-0.1,0-0.2,0-0.3c0-0.1,0-0.2,0-0.3c0-0.3,0.1-0.7,0.4-1
			c0.2-0.3,0.5-0.6,0.8-1.1c0.1-0.1,0.2-0.2,0.3-0.3c0.1-0.1,0.2-0.1,0.4-0.1c0.1,0,0.2,0.1,0.3,0.2c0.1,0.1,0.2,0.3,0.3,0.5
			c0.1,0.2,0.2,0.4,0.2,0.5c0.1,0.2,0.1,0.3,0.1,0.4c0,0.1,0,0.3-0.1,0.4c0,0.1-0.1,0.2-0.1,0.3c-0.1,0.1-0.2,0.4-0.5,0.7
			c-0.2,0.4-0.5,0.8-0.8,1.2c-0.3,0.4-0.5,0.8-0.8,1.2c-0.2,0.4-0.4,0.6-0.4,0.7c0.5-0.4,1.1-1,2-1.6c0.8-0.7,1.7-1.3,2.7-2
			c0.9-0.6,1.9-1.2,2.8-1.7c0.9-0.5,1.7-0.7,2.3-0.7c0.6,0,0.9,0.1,1.1,0.4c0.2,0.3,0.3,0.6,0.3,0.9c0,0.6-0.2,1.2-0.6,1.9
			c-0.4,0.7-0.8,1.3-1.3,2c-0.5,0.6-0.9,1.2-1.3,1.8c-0.4,0.6-0.6,1.1-0.6,1.5c0,0.1,0.1,0.2,0.2,0.4c0.1,0.1,0.3,0.2,0.5,0.2
			c0.5,0,1-0.1,1.7-0.3c0.6-0.2,1.3-0.5,2-0.8c0.7-0.3,1.3-0.7,1.9-1.1c0.6-0.4,1.1-0.8,1.5-1.1c0.2-0.2,0.3-0.4,0.3-0.5
			c0-0.1,0.1-0.3,0.3-0.5c0.4-0.3,0.6-0.5,0.8-0.5c0.1,0,0.2,0,0.2,0.1c0,0.1,0.1,0.2,0.1,0.2c0,0.4-0.5,0.9-1.5,1.7
			c-0.5,0.4-1.1,0.8-1.7,1.2c-0.6,0.4-1.3,0.8-2,1.1c-0.7,0.3-1.3,0.5-2,0.7c-0.7,0.2-1.3,0.3-1.9,0.3c-0.5,0-0.8-0.1-1.1-0.3
			C368.7,58.2,368.5,57.9,368.5,57.5z"/>
		<path fill="current" d="M389.5,54.7c-0.8,0.8-1.7,1.5-2.6,2.1c-0.7,0.5-1.5,1-2.4,1.4c-0.9,0.4-1.7,0.6-2.4,0.6
			c-0.5,0-0.9-0.2-1.1-0.5c-0.3-0.4-0.4-0.7-0.4-1.2c0-0.9,0.3-1.8,0.9-2.7c0.6-0.9,1.4-1.8,2.4-2.6c1-0.8,2.1-1.4,3.3-2
			c1.2-0.5,2.4-0.8,3.5-0.8c0.6,0,1.2,0.1,1.7,0.2c0.5,0.2,0.9,0.4,1.2,0.6c0.3,0.2,0.6,0.5,0.8,0.8c0.2,0.3,0.3,0.5,0.3,0.7
			c0,0.1-0.1,0.3-0.2,0.4c-0.1,0.1-0.3,0.2-0.4,0.2c-0.2,0-0.4-0.1-0.5-0.3c-0.1-0.2-0.2-0.4-0.3-0.6c-0.3-0.8-1.1-1.2-2.2-1.2
			c-0.8,0-1.6,0.3-2.6,0.8c-1,0.6-2,1.2-2.9,2c-0.9,0.8-1.7,1.6-2.4,2.5c-0.7,0.9-1,1.6-1,2.2c0,0.1,0,0.3,0.1,0.4
			c0.1,0.1,0.2,0.2,0.3,0.2c0.4,0,0.9-0.1,1.6-0.4c0.6-0.3,1.3-0.6,2-1.1c0.7-0.4,1.3-0.9,1.9-1.4c0.6-0.5,1.1-0.9,1.5-1.3
			c0.7-0.7,1.2-1.3,1.5-1.7c0.3-0.4,0.5-0.7,0.5-0.8c0,0,0.1-0.2,0.2-0.3c0.1-0.2,0.2-0.3,0.3-0.3c0.1,0,0.2,0,0.3,0.1
			c0.1,0.1,0.1,0.1,0.2,0.2c0.3,0.4,0.5,0.9,0.5,1.5c0,0.1,0,0.3-0.1,0.6c-0.1,0.2-0.1,0.5-0.2,0.7c-0.1,0.2-0.2,0.4-0.4,0.5
			c-0.2,0.2-0.3,0.2-0.4,0.2c-0.2,0-0.5,0.5-1,1.4c-0.5,1-1.1,2.2-2,3.8c1.1-0.3,2-0.7,2.9-1.1c0.8-0.4,1.6-0.7,2.2-1.1
			c0.6-0.3,1.1-0.6,1.5-0.9c0.4-0.3,0.7-0.5,1-0.7c0.2-0.1,0.3-0.4,0.3-0.7c0-0.3,0.1-0.6,0.3-0.7c0.2-0.1,0.4-0.3,0.5-0.4
			c0.2-0.1,0.3-0.2,0.5-0.2c0.1,0,0.2,0,0.3,0.1c0.1,0.1,0.2,0.2,0.2,0.3c0,0.2-0.1,0.4-0.2,0.6c-0.1,0.2-0.3,0.4-0.4,0.6
			c-0.2,0.2-0.4,0.4-0.6,0.6c-0.2,0.2-0.4,0.4-0.6,0.5c-1,0.8-2.2,1.5-3.7,2.2c-1.4,0.7-3,1.3-4.7,1.8c-0.7,1.2-1.3,2.5-2.1,3.8
			c-0.7,1.3-1.5,2.7-2.4,4.1c-0.8,1.3-1.7,2.5-2.8,3.7c-1,1.2-2.1,2.2-3.2,3.1c-1.1,0.9-2.2,1.6-3.3,2.2c-1.1,0.5-2.2,0.8-3.2,0.8
			c-0.6,0-1.2-0.1-1.7-0.3c-0.5-0.2-1-0.5-1.4-0.9c-0.4-0.4-0.7-0.8-0.9-1.3c-0.2-0.5-0.3-1-0.3-1.6c0-0.6,0.1-1.3,0.4-2
			c0.2-0.7,0.6-1.4,1-2.1c0.4-0.7,1-1.3,1.6-2c0.6-0.7,1.3-1.3,2-1.8c1.1-0.8,2.1-1.5,3.1-2.1c1-0.6,2-1.1,3.2-1.5
			c1.1-0.4,2.3-0.9,3.7-1.2c1.4-0.4,3-0.8,4.8-1.2c0.7-1.3,1.2-2.3,1.6-3.2c0.4-0.8,0.8-1.6,1.1-2.3L389.5,54.7z M382.2,68
			c0.9-1.4,1.6-2.6,2.3-3.7c0.7-1.1,1.3-2.2,1.9-3.3c-1.6,0.4-3.1,0.8-4.4,1.1c-1.3,0.4-2.4,0.8-3.5,1.2c-1.1,0.5-2.1,1-3,1.5
			c-0.9,0.5-1.9,1.2-2.9,2c-0.6,0.5-1.2,1-1.7,1.6c-0.5,0.6-1,1.3-1.3,1.9c-0.4,0.7-0.7,1.3-0.9,1.9c-0.2,0.6-0.3,1.2-0.3,1.7
			c0,0.7,0.3,1.3,0.8,1.8c0.5,0.5,1.2,0.7,2,0.7c0.8,0,1.6-0.2,2.6-0.7c1-0.5,1.9-1.1,2.9-1.9c1-0.8,2-1.7,2.9-2.7
			C380.7,70.2,381.5,69.1,382.2,68z"/>
		<path fill="current" d="M402.5,56.3c0.5,0,0.9,0.2,1.1,0.5c0.3,0.3,0.4,0.6,0.4,0.9c0,0.3-0.1,0.7-0.4,1.1c-0.3,0.4-0.6,0.6-1,0.6
			c-0.1,0-0.2,0-0.4-0.1c-0.2-0.1-0.3-0.1-0.5-0.2c-0.1-0.1-0.3-0.2-0.4-0.3c-0.1-0.1-0.2-0.2-0.2-0.3c0-0.2,0.1-0.3,0.2-0.5
			c0.2-0.2,0.3-0.4,0.5-0.8c0-0.1,0-0.2,0.1-0.3c0-0.1,0-0.2,0-0.3c0-0.1,0-0.2,0.1-0.2S402.3,56.3,402.5,56.3z"/>
		<path fill="current" d="M434.3,62.1c-0.9,0.5-1.9,1-2.9,1.4c-1,0.4-2.1,0.5-3.3,0.5c-1.2,0-2.5-0.2-3.8-0.7
			c-1.4-0.5-3-1.3-4.8-2.5c-1.4-0.9-2.6-1.6-3.5-2.2c-0.9-0.6-1.7-0.9-2.2-0.9c-0.2,0-0.4,0.1-0.5,0.2c-0.1,0.1-0.3,0.2-0.4,0.4
			c-0.1,0.1-0.3,0.3-0.4,0.4c-0.1,0.1-0.3,0.2-0.5,0.2c-0.4,0-0.7-0.2-1-0.6c-0.3-0.4-0.4-0.7-0.4-1.1c0-0.2,0-0.5,0.1-0.8
			c0.1-0.3,0.2-0.7,0.4-1c0.2-0.3,0.4-0.6,0.6-0.9c0.2-0.3,0.5-0.5,0.8-0.6c0.3-0.1,0.6-0.3,0.9-0.5c0.3-0.2,0.8-0.6,1.3-1.2
			c0.5-0.6,1.2-1.4,2-2.6c0.8-1.1,1.8-2.7,2.9-4.7c0.9-1.5,1.6-2.8,2.2-3.8c0.5-1,1-1.9,1.2-2.6c0.3-0.7,0.5-1.3,0.6-1.8
			c0.1-0.5,0.1-0.9,0.1-1.2c0-0.3,0-0.6-0.1-0.8c-0.1-0.3-0.1-0.6-0.1-0.9c0-0.2,0.1-0.5,0.3-0.9c0.2-0.3,0.4-0.7,0.8-1
			c0.3-0.3,0.7-0.6,1.1-0.9c0.4-0.3,0.8-0.4,1.3-0.4c0.5,0,0.9,0.1,1.3,0.2c0.4,0.1,0.5,0.3,0.5,0.5c0,0.2-0.1,0.4-0.2,0.6
			c-0.1,0.2-0.2,0.4-0.3,0.6c-0.2,0.4-0.5,1-0.8,1.7c-0.3,0.7-0.8,1.5-1.3,2.6c-0.5,1-1.2,2.3-2.1,3.8c-0.8,1.5-1.8,3.2-3,5.2
			c-0.9,1.5-1.6,2.8-2.3,3.8c-0.7,1.1-1.2,2-1.7,2.8c-0.5,0.8-0.9,1.5-1.3,2c-0.4,0.6-0.7,1.1-1,1.5c0.4,0.2,0.8,0.4,1.1,0.6
			c0.3,0.2,0.7,0.4,1.1,0.6c0.4,0.2,0.9,0.5,1.6,0.9c0.6,0.4,1.5,0.8,2.5,1.4c1,0.6,1.8,1.1,2.6,1.5c0.8,0.4,1.5,0.8,2.1,1.1
			c0.6,0.3,1.2,0.6,1.8,0.7c0.5,0.2,1.1,0.3,1.6,0.3c0.9,0,1.7-0.1,2.4-0.4c0.7-0.3,1.5-0.7,2.2-1.2c0.2-0.1,0.4-0.4,0.5-0.7
			c0.1-0.3,0.3-0.6,0.5-0.8c0.3-0.3,0.6-0.5,0.8-0.5c0.5,0,0.7,0.3,0.7,0.9c0,0.3-0.2,0.6-0.5,0.8S434.7,61.8,434.3,62.1z"/>
		<path fill="current" d="M442.6,50.3c0,0.4-0.2,0.9-0.6,1.4c-0.4,0.5-0.9,0.9-1.6,1.3c-0.7,0.4-1.4,0.7-2.2,1
			c-0.8,0.3-1.6,0.4-2.3,0.4c-0.1,0-0.3,0-0.4,0c-0.2,0-0.3,0-0.4-0.1c-0.6,0.8-0.9,1.6-0.9,2.4c0,0.5,0.2,0.9,0.6,1.1
			c0.4,0.2,0.9,0.3,1.4,0.3c0.7,0,1.5-0.1,2.3-0.3c0.8-0.2,1.7-0.4,2.5-0.8c0.9-0.3,1.7-0.7,2.5-1.1c0.8-0.4,1.5-0.9,2.1-1.4
			c0.2-0.2,0.3-0.4,0.4-0.5c0-0.2,0.2-0.4,0.4-0.5c0.4-0.3,0.6-0.5,0.8-0.5c0.1,0,0.2,0,0.2,0.1c0,0.1,0.1,0.2,0.1,0.2
			c0,0.2-0.2,0.5-0.5,0.8c-0.4,0.3-0.8,0.7-1.3,1.1c-0.6,0.4-1.3,0.9-2.1,1.3c-0.8,0.4-1.6,0.8-2.5,1.2c-0.8,0.4-1.7,0.6-2.6,0.9
			c-0.9,0.2-1.7,0.3-2.4,0.3c-0.5,0-0.9-0.1-1.3-0.1c-0.4-0.1-0.8-0.3-1.1-0.5c-0.3-0.2-0.6-0.5-0.8-0.8c-0.2-0.3-0.3-0.8-0.3-1.3
			c0-0.7,0.2-1.5,0.7-2.3s1.1-1.6,2-2.4c1-0.9,2-1.5,3-1.8c1-0.3,1.8-0.5,2.6-0.5c0.5,0,0.9,0.1,1.3,0.2
			C442.4,49.5,442.6,49.8,442.6,50.3z M441.6,50.5c0-0.1-0.1-0.2-0.2-0.3c-0.1-0.1-0.3-0.1-0.4-0.1c-0.3,0-0.7,0.1-1.2,0.4
			c-0.5,0.2-1,0.5-1.6,0.9c-0.5,0.4-1.1,0.8-1.6,1.2c-0.5,0.4-0.9,0.8-1.2,1.2c0.1,0,0.2,0,0.4,0c0.1,0,0.2,0,0.4,0
			c0.7,0,1.3-0.1,2-0.3c0.7-0.2,1.3-0.5,1.8-0.8c0.5-0.3,0.9-0.7,1.3-1.1C441.5,51.1,441.6,50.8,441.6,50.5z"/>
		<path fill="current" d="M456.7,57.4c0-0.4,0.1-0.7,0.2-1.1c0.2-0.4,0.4-0.9,0.8-1.7l-0.2-0.1c-0.4,0.4-0.9,0.9-1.5,1.4
			c-0.6,0.5-1.2,1-1.9,1.4c-0.7,0.4-1.3,0.8-2,1.1c-0.7,0.3-1.3,0.5-1.9,0.5c-0.6,0-1-0.2-1.3-0.5c-0.3-0.3-0.5-0.8-0.5-1.3
			c0-0.5,0.1-0.9,0.3-1.5c0.2-0.5,0.5-1.1,0.9-1.6c0.4-0.5,0.8-1,1.3-1.5c0.5-0.5,1-0.9,1.5-1.2c1-0.7,2.1-1.3,3.2-1.6
			c1.1-0.4,2.1-0.6,3-0.6c0.6,0,1.1,0.1,1.6,0.2c0.5,0.2,0.9,0.3,1.3,0.6c0.3,0.2,0.6,0.5,0.8,0.8c0.2,0.3,0.3,0.5,0.3,0.8
			c0,0.1-0.1,0.3-0.2,0.4c-0.1,0.2-0.3,0.2-0.5,0.2c-0.2,0-0.4-0.1-0.5-0.3c-0.1-0.2-0.2-0.5-0.4-0.7c-0.2-0.3-0.4-0.5-0.7-0.7
			c-0.3-0.2-0.8-0.3-1.5-0.3c-0.7,0-1.4,0.2-2.1,0.6c-0.8,0.4-1.7,1-2.7,1.8c-0.6,0.5-1.1,0.9-1.6,1.4c-0.5,0.5-0.9,1-1.3,1.4
			c-0.4,0.5-0.6,0.9-0.8,1.2c-0.2,0.4-0.3,0.6-0.3,0.8c0,0.6,0.2,0.9,0.7,0.9c0.3,0,0.8-0.1,1.3-0.4c0.6-0.3,1.2-0.6,1.8-1
			c0.6-0.4,1.2-0.9,1.8-1.4c0.6-0.5,1.1-1,1.5-1.4c0.6-0.7,1.1-1.2,1.3-1.5c0.2-0.3,0.4-0.6,0.6-0.9c0.1-0.2,0.3-0.4,0.4-0.5
			c0.1-0.2,0.3-0.2,0.4-0.2c0.2,0,0.3,0.1,0.4,0.2c0.1,0.1,0.2,0.3,0.4,0.5c0.1,0.2,0.2,0.4,0.3,0.6c0.1,0.2,0.1,0.4,0.1,0.5
			c0,0.1,0,0.4-0.1,0.6c-0.1,0.3-0.1,0.5-0.3,0.7c-0.1,0.2-0.2,0.4-0.4,0.6c-0.2,0.2-0.3,0.2-0.5,0.2c-0.1,0-0.2,0.1-0.4,0.3
			c-0.2,0.2-0.3,0.5-0.5,0.8c-0.2,0.3-0.3,0.6-0.4,0.9c-0.1,0.3-0.2,0.6-0.2,0.9c0,0.3,0.1,0.4,0.3,0.5s0.3,0.1,0.5,0.1
			c0.4,0,0.9-0.1,1.5-0.3c0.6-0.2,1.3-0.5,1.9-0.8c0.7-0.3,1.3-0.7,1.9-1.1c0.6-0.4,1.1-0.7,1.4-1c0.2-0.2,0.3-0.4,0.3-0.5
			c0-0.1,0.1-0.3,0.3-0.5c0.4-0.3,0.7-0.5,0.9-0.5c0,0,0.1,0,0.1,0.1c0,0.1,0.1,0.2,0.1,0.2c0,0.2-0.1,0.5-0.4,0.8
			c-0.3,0.3-0.7,0.7-1.2,1c-0.5,0.4-1.1,0.7-1.7,1.1c-0.6,0.4-1.3,0.7-2,1c-0.7,0.3-1.3,0.6-2,0.8c-0.7,0.2-1.3,0.3-1.9,0.3
			c-0.4,0-0.8-0.1-1.2-0.4C456.9,58.1,456.7,57.8,456.7,57.4z"/>
		<path fill="current" d="M478.4,58.7c-0.5,0-0.9-0.1-1.2-0.4c-0.3-0.3-0.5-0.7-0.5-1.3c0-0.2,0.1-0.5,0.2-0.8
			c0.1-0.3,0.2-0.6,0.4-0.9c0.1-0.3,0.2-0.6,0.3-0.8c0.1-0.2,0.1-0.3,0.1-0.4c0,0-0.3,0.2-0.8,0.7c-0.5,0.5-1.1,1-1.8,1.6
			c-0.7,0.6-1.5,1.1-2.3,1.6c-0.8,0.5-1.6,0.7-2.3,0.7c-0.5,0-0.9-0.2-1.3-0.6c-0.3-0.4-0.5-0.9-0.5-1.5c0-0.9,0.3-1.7,0.8-2.6
			c0.5-0.9,1.2-1.7,2-2.5c0.8-0.8,1.7-1.4,2.6-1.8c1-0.5,1.9-0.7,2.7-0.7c0.7,0,1.2,0.1,1.7,0.4s0.9,0.6,1,0.9
			c0.5-0.9,1.1-1.8,1.6-2.6c0.5-0.8,1.1-1.7,1.7-2.6c0.6-0.9,1.1-1.8,1.7-2.7c0.6-0.9,1.2-2,1.9-3.1c0.2-0.3,0.3-0.6,0.4-0.8
			c0.1-0.2,0.1-0.5,0.1-0.7c0-0.1,0-0.2,0-0.2c0-0.1,0-0.2,0-0.4c0-0.4,0.1-0.8,0.4-1.2c0.3-0.4,0.6-0.8,0.9-1.2
			c0.1-0.1,0.2-0.3,0.4-0.3c0.1-0.1,0.3-0.1,0.5-0.1c0.1,0,0.2,0.1,0.4,0.2c0.1,0.1,0.3,0.3,0.4,0.4c0.1,0.2,0.2,0.3,0.3,0.5
			c0.1,0.2,0.1,0.3,0.1,0.5c0,0.1,0,0.3-0.1,0.4c0,0.1-0.1,0.2-0.1,0.3c-0.1,0.1-0.2,0.3-0.4,0.6c-0.2,0.3-0.4,0.6-0.6,0.9
			c-0.2,0.4-0.5,0.7-0.7,1.1c-0.3,0.4-0.5,0.8-0.7,1.2c-1,1.8-2.1,3.6-3.3,5.4s-2.4,3.7-3.6,5.8c-1,1.7-1.7,3-2.1,4
			c-0.4,1-0.6,1.7-0.6,2.1c0,0.1,0,0.3,0.2,0.4c0.1,0.1,0.3,0.2,0.6,0.2c0.5,0,1-0.1,1.6-0.3c0.6-0.2,1.2-0.4,1.9-0.7
			c0.7-0.3,1.3-0.6,1.9-1c0.6-0.4,1.1-0.8,1.6-1.2c0.2-0.2,0.3-0.4,0.3-0.5c0-0.1,0.1-0.3,0.3-0.5c0.4-0.3,0.6-0.5,0.8-0.5
			c0.1,0,0.2,0,0.2,0.1c0,0.1,0,0.2,0,0.3c0,0.2-0.1,0.4-0.4,0.7c-0.3,0.3-0.6,0.6-1.1,0.9c-0.5,0.4-1,0.8-1.7,1.2
			c-0.6,0.4-1.2,0.8-1.9,1.1c-0.7,0.3-1.3,0.6-2,0.8C479.8,58.7,479.1,58.7,478.4,58.7z M470.1,57.2c0,0.2,0,0.4,0.1,0.6
			c0.1,0.2,0.2,0.3,0.5,0.3c0.4,0,0.9-0.2,1.6-0.5c0.6-0.4,1.2-0.8,1.9-1.2s1.2-1,1.8-1.5c0.5-0.5,1-0.9,1.2-1.2
			c0.4-0.4,0.8-0.9,1.2-1.4c0.4-0.5,0.7-0.9,0.9-1.3c-0.3-0.5-0.8-0.8-1.6-0.8c-0.7,0-1.5,0.3-2.3,0.8c-0.9,0.5-1.7,1.2-2.4,1.9
			c-0.8,0.7-1.4,1.5-1.9,2.3C470.4,56,470.1,56.6,470.1,57.2z"/>
		<path fill="current" d="M491,52.1c0-0.1,0-0.3,0-0.4c0-0.1,0-0.2,0-0.3c0-0.3,0.1-0.7,0.4-1c0.2-0.3,0.5-0.6,0.8-1.1
			c0.2-0.3,0.4-0.5,0.6-0.5c0.1,0,0.3,0.1,0.4,0.4c0.2,0.2,0.3,0.5,0.5,0.9c0,0.1,0.1,0.3,0.1,0.4c0,0.1,0,0.3,0,0.4
			c0,0.3-0.2,0.7-0.5,1.2c-0.4,0.5-0.8,1.1-1.2,1.7c-0.5,0.6-0.9,1.3-1.2,1.9c-0.4,0.7-0.5,1.2-0.5,1.8c0,0.1,0,0.2,0.1,0.3
			c0.1,0.1,0.2,0.1,0.4,0.1c0.4,0,1-0.1,1.6-0.3c0.6-0.2,1.3-0.5,2-0.8c0.7-0.3,1.3-0.7,1.9-1c0.6-0.4,1.1-0.8,1.5-1.1
			c0.2-0.2,0.3-0.4,0.3-0.5c0-0.1,0.1-0.3,0.3-0.5c0.4-0.3,0.7-0.5,0.8-0.5c0.2,0,0.3,0.1,0.3,0.3c0,0.4-0.5,0.9-1.5,1.7
			c-0.5,0.4-1.1,0.8-1.7,1.2c-0.6,0.4-1.3,0.7-2,1.1c-0.7,0.3-1.4,0.6-2,0.8c-0.7,0.2-1.3,0.3-1.8,0.3c-0.5,0-0.8-0.1-1.1-0.4
			c-0.3-0.2-0.4-0.6-0.4-1c0-0.5,0.1-0.9,0.4-1.5c0.3-0.5,0.5-1,0.8-1.5c0.3-0.5,0.6-1,0.8-1.4C490.9,52.6,491,52.3,491,52.1z
			 M496.1,44.8c0.1,0.2,0.3,0.5,0.4,0.8c0.2,0.3,0.2,0.6,0.2,0.9c0,0.4-0.2,0.7-0.5,1.1c-0.3,0.4-0.6,0.6-1,0.6
			c-0.3,0-0.5-0.1-0.8-0.5c-0.3-0.3-0.4-0.6-0.4-0.8c0-0.3,0.1-0.6,0.3-0.9c0.2-0.3,0.4-0.5,0.6-0.8c0.1-0.2,0.2-0.4,0.2-0.5
			c0-0.1,0.1-0.2,0.4-0.2c0.1,0,0.2,0,0.3,0.1C496,44.6,496,44.7,496.1,44.8z"/>
		<path fill="current" d="M508.7,57.5c0-0.6,0.1-1.2,0.5-1.9c0.3-0.6,0.6-1.2,1-1.8s0.7-1.1,1-1.6c0.3-0.5,0.5-0.9,0.5-1.2
			c0-0.3-0.1-0.5-0.4-0.5c-0.4,0-0.9,0.1-1.5,0.4c-0.6,0.3-1.2,0.6-1.9,1.1c-0.7,0.4-1.4,0.9-2.1,1.5c-0.7,0.6-1.4,1.1-2,1.7
			c-0.6,0.6-1.2,1.2-1.6,1.7c-0.5,0.6-0.8,1.1-1,1.5c0,0.1-0.1,0.2-0.2,0.2c-0.1,0-0.2,0.1-0.2,0.1c-0.2,0-0.5-0.1-0.6-0.3
			c-0.2-0.2-0.2-0.5-0.2-0.8c0-0.1,0.1-0.4,0.3-0.8c0.2-0.4,0.4-0.8,0.7-1.3s0.5-0.9,0.7-1.3c0.2-0.4,0.4-0.7,0.5-0.8
			c0.2-0.2,0.3-0.5,0.4-0.7s0.2-0.5,0.2-0.7c0-0.1,0-0.2,0-0.3c0-0.1,0-0.2,0-0.3c0-0.3,0.1-0.7,0.4-1c0.2-0.3,0.5-0.6,0.8-1.1
			c0.1-0.1,0.2-0.2,0.3-0.3c0.1-0.1,0.2-0.1,0.4-0.1c0.1,0,0.2,0.1,0.3,0.2c0.1,0.1,0.2,0.3,0.3,0.5c0.1,0.2,0.2,0.4,0.2,0.5
			c0.1,0.2,0.1,0.3,0.1,0.4c0,0.1,0,0.3-0.1,0.4c0,0.1-0.1,0.2-0.1,0.3c-0.1,0.1-0.2,0.4-0.5,0.7c-0.2,0.4-0.5,0.8-0.8,1.2
			c-0.3,0.4-0.6,0.8-0.8,1.2c-0.2,0.4-0.4,0.6-0.4,0.7c0.5-0.4,1.1-1,2-1.6c0.8-0.7,1.7-1.3,2.7-2c0.9-0.6,1.9-1.2,2.8-1.7
			c0.9-0.5,1.7-0.7,2.3-0.7c0.5,0,0.9,0.1,1.1,0.4c0.2,0.3,0.3,0.6,0.3,0.9c0,0.6-0.2,1.2-0.6,1.9c-0.4,0.7-0.8,1.3-1.3,2
			c-0.5,0.6-0.9,1.2-1.3,1.8c-0.4,0.6-0.6,1.1-0.6,1.5c0,0.1,0.1,0.2,0.2,0.4c0.2,0.1,0.3,0.2,0.5,0.2c0.5,0,1-0.1,1.7-0.3
			c0.6-0.2,1.3-0.5,2-0.8c0.7-0.3,1.3-0.7,1.9-1.1s1.1-0.8,1.5-1.1c0.2-0.2,0.3-0.4,0.3-0.5c0-0.1,0.1-0.3,0.3-0.5
			c0.4-0.3,0.6-0.5,0.8-0.5s0.2,0,0.2,0.1c0,0.1,0.1,0.2,0.1,0.2c0,0.4-0.5,0.9-1.5,1.7c-0.5,0.4-1.1,0.8-1.7,1.2
			c-0.6,0.4-1.3,0.8-2,1.1c-0.7,0.3-1.4,0.5-2,0.7c-0.7,0.2-1.3,0.3-1.9,0.3c-0.5,0-0.8-0.1-1.1-0.3
			C508.9,58.2,508.7,57.9,508.7,57.5z"/>
		<path fill="current" d="M529.7,54.7c-0.9,0.8-1.7,1.5-2.6,2.1c-0.7,0.5-1.5,1-2.4,1.4c-0.9,0.4-1.7,0.6-2.4,0.6
			c-0.5,0-0.9-0.2-1.1-0.5c-0.3-0.4-0.4-0.7-0.4-1.2c0-0.9,0.3-1.8,0.9-2.7c0.6-0.9,1.4-1.8,2.4-2.6c1-0.8,2.1-1.4,3.3-2
			c1.2-0.5,2.4-0.8,3.5-0.8c0.6,0,1.2,0.1,1.7,0.2c0.5,0.2,0.9,0.4,1.2,0.6c0.3,0.2,0.6,0.5,0.8,0.8c0.2,0.3,0.3,0.5,0.3,0.7
			c0,0.1-0.1,0.3-0.2,0.4c-0.1,0.1-0.3,0.2-0.4,0.2c-0.2,0-0.4-0.1-0.5-0.3c-0.1-0.2-0.2-0.4-0.3-0.6c-0.3-0.8-1.1-1.2-2.2-1.2
			c-0.8,0-1.6,0.3-2.6,0.8c-1,0.6-2,1.2-2.9,2c-0.9,0.8-1.7,1.6-2.4,2.5c-0.7,0.9-1,1.6-1,2.2c0,0.1,0,0.3,0.1,0.4
			c0.1,0.1,0.2,0.2,0.3,0.2c0.4,0,0.9-0.1,1.6-0.4c0.6-0.3,1.3-0.6,2-1.1c0.7-0.4,1.3-0.9,1.9-1.4c0.6-0.5,1.1-0.9,1.5-1.3
			c0.7-0.7,1.2-1.3,1.5-1.7c0.3-0.4,0.5-0.7,0.5-0.8c0,0,0.1-0.2,0.1-0.3c0.1-0.2,0.2-0.3,0.3-0.3c0.1,0,0.2,0,0.3,0.1
			c0.1,0.1,0.1,0.1,0.2,0.2c0.3,0.4,0.5,0.9,0.5,1.5c0,0.1,0,0.3-0.1,0.6c-0.1,0.2-0.1,0.5-0.2,0.7c-0.1,0.2-0.2,0.4-0.4,0.5
			c-0.1,0.2-0.3,0.2-0.5,0.2c-0.2,0-0.5,0.5-1,1.4c-0.5,1-1.1,2.2-2,3.8c1.1-0.3,2-0.7,2.9-1.1c0.8-0.4,1.6-0.7,2.2-1.1
			c0.6-0.3,1.1-0.6,1.5-0.9c0.4-0.3,0.7-0.5,1-0.7c0.2-0.1,0.3-0.4,0.3-0.7c0-0.3,0.1-0.6,0.3-0.7c0.2-0.1,0.4-0.3,0.5-0.4
			c0.2-0.1,0.3-0.2,0.5-0.2c0.1,0,0.2,0,0.3,0.1c0.1,0.1,0.1,0.2,0.1,0.3c0,0.2-0.1,0.4-0.2,0.6c-0.1,0.2-0.3,0.4-0.4,0.6
			c-0.2,0.2-0.4,0.4-0.6,0.6c-0.2,0.2-0.4,0.4-0.6,0.5c-1,0.8-2.2,1.5-3.7,2.2c-1.4,0.7-3,1.3-4.7,1.8c-0.7,1.2-1.3,2.5-2.1,3.8
			c-0.7,1.3-1.5,2.7-2.4,4.1c-0.8,1.3-1.7,2.5-2.8,3.7c-1,1.2-2.1,2.2-3.2,3.1c-1.1,0.9-2.2,1.6-3.3,2.2c-1.1,0.5-2.2,0.8-3.2,0.8
			c-0.6,0-1.2-0.1-1.7-0.3c-0.5-0.2-1-0.5-1.4-0.9c-0.4-0.4-0.7-0.8-0.9-1.3c-0.2-0.5-0.3-1-0.3-1.6c0-0.6,0.1-1.3,0.4-2
			c0.2-0.7,0.6-1.4,1-2.1c0.4-0.7,1-1.3,1.6-2c0.6-0.7,1.3-1.3,2-1.8c1.1-0.8,2.1-1.5,3.1-2.1c1-0.6,2-1.1,3.2-1.5
			c1.1-0.4,2.3-0.9,3.7-1.2c1.4-0.4,3-0.8,4.8-1.2c0.7-1.3,1.2-2.3,1.6-3.2c0.4-0.8,0.8-1.6,1.1-2.3L529.7,54.7z M522.4,68
			c0.9-1.4,1.6-2.6,2.3-3.7c0.7-1.1,1.3-2.2,1.9-3.3c-1.7,0.4-3.1,0.8-4.4,1.1c-1.3,0.4-2.4,0.8-3.5,1.2c-1.1,0.5-2.1,1-3,1.5
			c-1,0.5-1.9,1.2-2.9,2c-0.6,0.5-1.2,1-1.7,1.6c-0.5,0.6-1,1.3-1.3,1.9c-0.4,0.7-0.7,1.3-0.9,1.9c-0.2,0.6-0.3,1.2-0.3,1.7
			c0,0.7,0.3,1.3,0.8,1.8c0.5,0.5,1.2,0.7,2,0.7c0.8,0,1.6-0.2,2.6-0.7c1-0.5,1.9-1.1,2.9-1.9c1-0.8,2-1.7,2.9-2.7
			C520.9,70.2,521.7,69.1,522.4,68z"/>
		<path fill="current" d="M542.7,56.3c0.5,0,0.9,0.2,1.1,0.5c0.3,0.3,0.4,0.6,0.4,0.9c0,0.3-0.1,0.7-0.4,1.1c-0.3,0.4-0.6,0.6-1,0.6
			c-0.1,0-0.2,0-0.4-0.1c-0.1-0.1-0.3-0.1-0.5-0.2c-0.1-0.1-0.3-0.2-0.4-0.3c-0.1-0.1-0.1-0.2-0.1-0.3c0-0.2,0.1-0.3,0.2-0.5
			c0.2-0.2,0.3-0.4,0.5-0.8c0-0.1,0-0.2,0.1-0.3c0-0.1,0-0.2,0-0.3c0-0.1,0.1-0.2,0.1-0.2C542.4,56.3,542.5,56.3,542.7,56.3z"/>
	</g>
	<g>
		<g>
			<path fill="current" d="M450.7,164.7v-22.1h2.9v9.1h11.5v-9.1h2.9v22.1h-2.9v-10.4h-11.5v10.4H450.7z"/>
			<path fill="current" d="M483.6,159.6l2.8,0.3c-0.4,1.6-1.3,2.9-2.5,3.8c-1.2,0.9-2.7,1.4-4.6,1.4c-2.3,0-4.2-0.7-5.6-2.2
				c-1.4-1.4-2.1-3.5-2.1-6.1c0-2.7,0.7-4.8,2.1-6.3c1.4-1.5,3.2-2.2,5.4-2.2c2.1,0,3.9,0.7,5.3,2.2c1.4,1.5,2,3.5,2,6.2
				c0,0.2,0,0.4,0,0.7h-12c0.1,1.8,0.6,3.1,1.5,4c0.9,0.9,2,1.4,3.4,1.4c1,0,1.8-0.3,2.6-0.8C482.6,161.6,483.2,160.7,483.6,159.6z
				 M474.7,155.2h9c-0.1-1.3-0.5-2.4-1-3c-0.9-1-2-1.6-3.4-1.6c-1.2,0-2.3,0.4-3.1,1.3C475.2,152.7,474.7,153.8,474.7,155.2z"/>
			<path fill="current" d="M500.3,162.8c-1,0.9-2,1.5-2.9,1.8c-0.9,0.4-1.9,0.5-3,0.5c-1.8,0-3.1-0.4-4.1-1.3
				c-0.9-0.9-1.4-2-1.4-3.3c0-0.8,0.2-1.5,0.5-2.2c0.4-0.6,0.8-1.2,1.4-1.6c0.6-0.4,1.2-0.7,2-0.9c0.5-0.1,1.3-0.3,2.4-0.4
				c2.2-0.3,3.8-0.6,4.8-0.9c0-0.4,0-0.6,0-0.7c0-1.1-0.3-1.9-0.8-2.3c-0.7-0.6-1.7-0.9-3.1-0.9c-1.3,0-2.2,0.2-2.8,0.7
				c-0.6,0.4-1.1,1.2-1.4,2.4l-2.7-0.4c0.2-1.1,0.6-2.1,1.2-2.8c0.6-0.7,1.4-1.2,2.4-1.6c1-0.4,2.3-0.6,3.6-0.6
				c1.4,0,2.5,0.2,3.3,0.5c0.9,0.3,1.5,0.7,1.9,1.2c0.4,0.5,0.7,1.1,0.8,1.8c0.1,0.5,0.1,1.3,0.1,2.5v3.6c0,2.5,0.1,4.1,0.2,4.8
				c0.1,0.7,0.3,1.3,0.7,1.9h-2.8C500.5,164.2,500.3,163.5,500.3,162.8z M500,156.7c-1,0.4-2.5,0.7-4.4,1c-1.1,0.2-1.9,0.3-2.4,0.5
				c-0.5,0.2-0.8,0.5-1.1,0.9c-0.3,0.4-0.4,0.8-0.4,1.3c0,0.7,0.3,1.3,0.8,1.8c0.5,0.5,1.4,0.7,2.4,0.7c1,0,2-0.2,2.8-0.7
				c0.8-0.5,1.4-1.1,1.8-1.9c0.3-0.6,0.4-1.5,0.4-2.7V156.7z"/>
			<path fill="current" d="M506.9,164.7v-22.1h2.7v22.1H506.9z"/>
			<path fill="current" d="M519.8,162.3l0.4,2.4c-0.8,0.2-1.4,0.2-2.1,0.2c-1,0-1.8-0.2-2.3-0.5c-0.5-0.3-0.9-0.7-1.1-1.2
				c-0.2-0.5-0.3-1.6-0.3-3.2v-9.2h-2v-2.1h2v-4l2.7-1.6v5.6h2.7v2.1h-2.7v9.4c0,0.8,0,1.3,0.1,1.5c0.1,0.2,0.3,0.4,0.5,0.5
				c0.2,0.1,0.5,0.2,0.9,0.2C518.9,162.4,519.3,162.4,519.8,162.3z"/>
			<path fill="current" d="M522.4,164.7v-22.1h2.7v7.9c1.3-1.5,2.9-2.2,4.8-2.2c1.2,0,2.2,0.2,3.1,0.7c0.9,0.5,1.5,1.1,1.9,1.9
				c0.4,0.8,0.6,2,0.6,3.6v10.2h-2.7v-10.2c0-1.4-0.3-2.3-0.9-3c-0.6-0.6-1.4-0.9-2.5-0.9c-0.8,0-1.6,0.2-2.3,0.6
				c-0.7,0.4-1.2,1-1.5,1.7c-0.3,0.7-0.5,1.7-0.5,3v8.8H522.4z"/>
		</g>
	</g>
</g>
</svg>
